<svg width="38" height="32" xmlns="http://www.w3.org/2000/svg" xmlns:xlink="http://www.w3.org/1999/xlink" xml:space="preserve" overflow="hidden"><defs><clipPath id="clip0"><rect x="0" y="0" width="38" height="32"/></clipPath><clipPath id="clip1"><rect x="0" y="0" width="38" height="31"/></clipPath><clipPath id="clip2"><rect x="0" y="0" width="38" height="31"/></clipPath><clipPath id="clip3"><rect x="0" y="0" width="38" height="31"/></clipPath></defs><g clip-path="url(#clip0)"><g clip-path="url(#clip1)"><g clip-path="url(#clip2)"><g clip-path="url(#clip3)"><path d="M21.3935 23.5482 32.3211 23.5482C34.0211 23.5482 35.3993 24.9263 35.3993 26.6264 35.3993 28.3265 34.0211 29.7046 32.3211 29.7046L18.4692 29.7046C16.1944 29.5165 13.9882 28.8336 12.005 27.7038L2.30865 23.3943 3.23211 14.0058 13.8519 14.0058C15.7022 14.0428 17.5091 14.5742 19.0848 15.5449L22.6247 17.8535C23.9664 18.6239 24.4295 20.3359 23.6593 21.6776 23.6245 21.7381 23.5874 21.7973 23.5482 21.8552L23.5482 22.0091C22.767 23.2621 21.1334 23.6704 19.8544 22.9326L15.2371 20.1622" stroke="#000000" stroke-width="2.15474" stroke-linecap="round" stroke-linejoin="round" stroke-miterlimit="4" stroke-opacity="1" fill="#FFFFFF" fill-rule="nonzero" fill-opacity="1" transform="matrix(1.02151 0 0 1 0 0.0628465)"/><path d="M2.30865 12.3128 2.30865 26.4725" stroke="#000000" stroke-width="4.61729" stroke-linecap="round" stroke-linejoin="round" stroke-miterlimit="4" stroke-opacity="1" fill="none" fill-rule="nonzero" transform="matrix(1.02151 0 0 1 0 0.0628465)"/><path d="M36.3227 14.3136C36.3266 10.7754 33.5468 7.86005 30.0124 7.69549L29.3968 7.69549C26.0555 8.06455 23.5687 10.9547 23.7021 14.3136" fill="#000000" fill-rule="nonzero" fill-opacity="1" transform="matrix(1.02151 0 0 1 0 0.0628465)"/><path d="M33.3984 3.53993C33.3984 5.49497 31.8135 7.07985 29.8585 7.07985 27.9035 7.07985 26.3186 5.49497 26.3186 3.53993 26.3186 1.58488 27.9035-7.33899e-08 29.8585-7.33899e-08 31.8135-7.33899e-08 33.3984 1.58488 33.3984 3.53993Z" fill="#000000" fill-rule="nonzero" fill-opacity="1" transform="matrix(1.02151 0 0 1 0 0.0628465)"/></g></g></g></g></svg>