<svg width="38" height="38" xmlns="http://www.w3.org/2000/svg" xml:space="preserve" overflow="hidden"><defs><clipPath id="clip0"><rect x="0" y="0" width="38" height="38"/></clipPath></defs><g clip-path="url(#clip0)"><path d="M20.1875 1.1875C11.0189 1.17428 3.57555 8.59619 3.56233 17.7648 3.55785 20.8736 4.42633 23.921 6.06892 26.5604L1.1875 36.8125 11.438 31.9295C19.2346 36.7789 29.4863 34.3897 34.3357 26.5932 39.1851 18.7965 36.7959 8.54487 28.9994 3.69544 26.3549 2.05064 23.3018 1.18166 20.1875 1.1875Z" stroke="#000000" stroke-width="2.375" stroke-linecap="round" stroke-linejoin="round" stroke-miterlimit="4" stroke-opacity="1" fill="none" fill-rule="nonzero"/><path d="M23.75 24.9375 22.5625 24.9375C21.2509 24.9375 20.1875 23.8741 20.1875 22.5625L20.1875 16.625C20.1875 15.9692 19.6558 15.4375 19 15.4375L17.8125 15.4375" stroke="#000000" stroke-width="2.375" stroke-linecap="round" stroke-linejoin="round" stroke-miterlimit="4" stroke-opacity="1" fill="none" fill-rule="nonzero"/><path d="M19.5938 9.5 19.5938 9.5" stroke="#000000" stroke-width="2.375" stroke-linecap="round" stroke-linejoin="round" stroke-miterlimit="4" stroke-opacity="1" fill="none" fill-rule="nonzero"/><path d="M20.1875 10.0938C20.1875 9.76583 19.9217 9.5 19.5938 9.5" stroke="#000000" stroke-width="2.375" stroke-linecap="round" stroke-linejoin="round" stroke-miterlimit="4" stroke-opacity="1" fill="none" fill-rule="nonzero"/><path d="M19.5938 9.5C19.2658 9.5 19 9.76583 19 10.0938 19 10.4217 19.2658 10.6875 19.5938 10.6875 19.9217 10.6875 20.1875 10.4217 20.1875 10.0938" stroke="#000000" stroke-width="2.375" stroke-linecap="round" stroke-linejoin="round" stroke-miterlimit="4" stroke-opacity="1" fill="none" fill-rule="nonzero"/></g></svg>