<svg viewBox="0 0 876 876" fill="none" xmlns="http://www.w3.org/2000/svg">
    <path
        fill-rule="evenodd"
        clip-rule="evenodd"
        d="M438 40a398 398 0 1 0 0 796 398 398 0 0 0 0-796zM0 438a438 438 0 1 1 876 0 438 438 0 0 1-876 0z"
        fill="currentColor"
    />
    <path
        d="M651 212h-77l2-10v-63c0-14-8-22-21-22H321c-13 0-21 8-21 22v75l-9-2h-66c-13 0-21 9-21 23v446c0 14 8 23 21 23h234c13 0 21-9 21-23v-62l-2-11h77l9-2v75c0 14 8 23 21 23h66c12 0 21-9 21-23V235c0-14-8-23-21-23zM468 621v60c0 7-3 11-9 11H225c-6 0-9-4-9-11V235c0-7 3-11 9-11h66c6 0 9 4 9 11v366l1 5 5 2h153c6 0 9 4 9 11v2zm96-96v60c0 7-3 11-9 11H321c-6 0-9-4-9-11V139c0-7 3-10 9-10h234c6 0 9 3 9 10v63c0 7-3 10-9 10H402l-5 2-1 6v93l1 6 5 1h153c6 0 9 4 9 11v63c0 7-3 10-9 10H402l-5 2-1 6v93l1 5 5 2h153c6 0 9 4 9 11v2zm96-288v444c0 7-3 11-9 11h-66c-6 0-9-4-9-11V508l-2-6-4-2H417c-6 0-9-3-9-10v-63c0-7 3-11 9-11h153l4-1 2-6v-93l-2-6-4-2H417c-6 0-9-3-9-10v-63c0-7 3-11 9-11h234c6 0 9 4 9 11v2z"
        fill="currentColor"
    />
</svg>