<svg xmlns="http://www.w3.org/2000/svg" fill="none" viewBox="0 0 874 874">
    <path fill="currentColor" d="M436.67 873.34a436.33 436.33 0 1 1 170.37-34.4 434.9 434.9 0 0 1-170.37 34.4Zm0-835.34a396.36 396.36 0 1 0 1.09 792.72A396.36 396.36 0 0 0 436.67 38Z"/>
    <path fill="currentColor" d="M649.37 711.67h-65.85c-18.25 0-31-13.46-31-32.74v-63.19H488.6v63.18c0 19.28-12.75 32.74-31 32.74H223.88c-18.25 0-31-13.46-31-32.74v-446c0-19.27 12.75-32.73 31-32.73h64.93v-63.15c0-19.28 12.75-32.74 31-32.74h233.75c18.25 0 31 13.46 31 32.74v63.15h64.9c8.74 0 16.32 3 21.94 8.67 6 6 9.06 14.37 9 24.16v445.91c-.03 19.28-12.78 32.74-31.03 32.74Zm-64.74-32h63.85V232.19H416.74V296.13h151.61c6.69 0 10.49 2.88 12.5 5.3 2.5 3 3.72 6.95 3.72 12.05v93.18c0 5.1-1.22 9-3.72 12.06-2 2.41-5.81 5.29-12.5 5.29H416.74V487.99h151.65c6.66 0 10.45 2.86 12.47 5.28 2.52 3 3.75 6.94 3.75 12.07v173.61l.02.79v-.07Zm-359.78 0h231.77V615.8H304.81c-6.54-.1-10.28-2.88-12.26-5.21-2.56-3-3.81-7-3.81-12.14V232.21h-63.89v446.74c-.02.28-.01.52 0 .79v-.07Zm95.89-95.93h231.81v-63.95H400.92c-6.62 0-10.42-2.84-12.45-5.24-2.54-3-3.77-7-3.77-12.11v-93c0-5.09 1.22-9 3.72-12.05 2-2.41 5.82-5.3 12.5-5.3h151.59V328.16H400.92c-6.62 0-10.41-2.83-12.44-5.24-2.54-3-3.78-6.95-3.78-12.11v-93.23c0-5.09 1.22-9 3.72-12 2-2.43 5.82-5.31 12.5-5.31h151.59V136.3H320.74v447.44Z"/>
</svg>