<svg xmlns="http://www.w3.org/2000/svg" fill="none" viewBox="0 0 500 500">
    <path fill="#fff" d="M250 500a250 250 0 100-500 250 250 0 000 500z"/>
    <path fill="#F4B400" d="M318 69H182c-3.5 0-5.2 2-5.2 6.2V335c0 4.2 1.7 6.3 5.2 6.3H318c3.6 0 5.3-2.1 5.3-6.3V298.6c0-4.2-1.7-6.3-5.3-6.3h-88.8c-1.3 0-2.3-.3-2.8-1-.6-.6-.8-1.7-.8-3.3v-54.2c0-1.5.2-2.6.8-3.2.5-.7 1.5-1 2.8-1H318c3.5 0 5.2-2.1 5.2-6.3V187c0-4.2-1.7-6.3-5.2-6.3H229.2c-1.3 0-2.3-.3-2.8-1-.6-.6-.8-1.7-.8-3.3V122.1c0-1.5.2-2.6.8-3.3.5-.6 1.5-1 2.8-1H318c3.5 0 5.2-2 5.2-6.2V75.2c0-4.1-1.7-6.2-5.3-6.2z"/>
    <path fill="#4285F4" d="M374 124.8H237.7c-3.5 0-5.3 2.1-5.3 6.3V167.4c0 4.2 1.8 6.3 5.3 6.3h88.9c1.3 0 2.2.3 2.8 1 .5.6.8 1.7.8 3.3V232.3c0 1.5-.3 2.6-.8 3.2-.6.7-1.5 1-2.8 1H237.8c-3.5 0-5.3 2.1-5.3 6.3V279c0 4.2 1.8 6.3 5.3 6.3h88.9c1.3 0 2.2.3 2.8 1 .5.6.8 1.7.8 3.3v101.1c0 4.2 1.8 6.3 5.3 6.3H373.9c3.5 0 5.3-2.1 5.3-6.3V131.1c0-4.2-1.8-6.3-5.3-6.3z"/>
    <path fill="#0F9D58" d="M262.2 348.2h-88.9c-1.3 0-2.2-.4-2.8-1-.5-.7-.8-1.8-.8-3.3V131c0-4.2-1.7-6.3-5.3-6.3H126.1c-3.5 0-5.3 2-5.3 6.3v259.6c0 4.2 1.8 6.3 5.3 6.3H262.2c3.5 0 5.2-2 5.2-6.2V354.4c0-4.2-1.7-6.2-5.2-6.2z"/>
</svg>
