<svg xmlns="http://www.w3.org/2000/svg" fill="none" viewBox="0 0 460 460">
    <path fill="#fff" d="M229.7 459.4a229.7 229.7 0 100-459.4 229.7 229.7 0 000 459.4z"/>
    <path fill="#F6C616" d="M292.2 63.4H167.2c-3.3 0-4.9 1.9-4.9 5.7V307.7c0 3.9 1.6 5.8 4.9 5.8H292.2c3.3 0 4.9-2 4.9-5.8v-33.3c0-3.9-1.6-5.8-4.9-5.8h-81.6c-1.2 0-2-.3-2.6-1-.5-.5-.8-1.5-.8-3V215c0-1.4.3-2.5.8-3 .5-.7 1.4-1 2.6-1H292.2c3.3 0 4.9-1.9 4.9-5.7v-33.4c0-3.9-1.6-5.8-4.9-5.8h-81.6c-1.2 0-2-.3-2.6-.9-.5-.6-.8-1.6-.8-3v-49.9c0-1.4.3-2.4.8-3 .5-.6 1.4-1 2.6-1H292.2c3.3 0 4.9-1.8 4.9-5.7V69.2c0-3.9-1.6-5.8-4.9-5.8z"/>
    <path fill="#2683C2" d="M343.6 114.7H218.5c-3.2 0-4.8 1.9-4.8 5.7v33.4c0 3.9 1.6 5.8 4.8 5.8H300.2c1.2 0 2 .3 2.5.9.6.6.8 1.6.8 3v49.9c0 1.4-.3 2.4-.8 3-.5.6-1.3 1-2.5 1h-81.7c-3.2 0-4.8 1.8-4.8 5.7v33.4c0 3.8 1.6 5.7 4.8 5.7H300.2c1.2 0 2 .3 2.5 1 .6.6.8 1.6.8 3V359c0 3.8 1.6 5.7 4.8 5.7h35.3c3.2 0 4.8-1.9 4.8-5.7V120.5c0-3.9-1.6-5.8-4.8-5.8z"/>
    <path fill="#1B7862" d="M241 319.9h-81.7c-1.3 0-2.1-.3-2.6-1-.5-.5-.8-1.5-.8-3V120.6c0-4-1.6-5.8-4.8-5.8h-35.3c-3.2 0-4.8 1.9-4.8 5.7V359c0 3.9 1.6 5.8 4.8 5.8H241c3.2 0 4.8-2 4.8-5.8v-33.3c0-3.9-1.6-5.8-4.8-5.8z"/>
</svg>
